Coordinates
version=1
nRows=12
nColumns=24
inDegrees=yes

Units are S.I. units (second, meters, Newtons, ...)
Angles are in degrees.

endheader
time	pelvis_tilt	pelvis_list	pelvis_rotation	pelvis_tx	pelvis_ty	pelvis_tz	hip_flexion_r	hip_adduction_r	hip_rotation_r	knee_angle_r	ankle_angle_r	subtalar_angle_r	mtp_angle_r	hip_flexion_l	hip_adduction_l	hip_rotation_l	knee_angle_l	ankle_angle_l	subtalar_angle_l	mtp_angle_l	lumbar_extension	lumbar_bending	lumbar_rotation
      3.73000000	     -3.40229933	      0.54906126	      3.29441533	      0.04615833	      0.67897563	     -0.10064133	     27.35953264	      2.21824154	     11.38325431	     -7.72159208	      6.73079108	     -8.86282239	      0.00000000	    -18.37136252	      6.97803826	     13.38301529	    -18.71414075	      2.85169638	     -3.71268410	      0.00000000	    -11.25259008	      1.11071371	     -8.17485373
      3.74000000	     -3.27180852	     -0.19855101	      3.40597928	      0.06106960	      0.67814391	     -0.09968450	     28.05671926	      3.61947897	     11.38889214	    -11.34735479	      5.66396836	    -10.01476475	      0.00000000	    -16.40472487	      6.00081697	      9.56388571	    -23.70520652	      1.44986535	     -0.77102729	      0.00000000	    -11.40926426	      2.12161194	     -8.10541117
      3.75000000	     -3.36491547	     -1.01342527	      3.60211779	      0.07579719	      0.67711892	     -0.09884437	     28.92271754	      5.04514293	     11.63899558	    -14.89532902	      4.82179875	    -11.08997409	      0.00000000	    -13.89309764	      4.79162218	      6.34861006	    -28.95770053	     -0.93231550	      0.65708471	      0.00000000	    -11.27771664	      3.21202977	     -8.19596696
      3.76000000	     -3.29995459	     -2.03310626	      3.84665413	      0.09034801	      0.67640233	     -0.09814586	     29.50610676	      6.64015733	     11.66172803	    -18.20281841	      4.33575906	    -11.87764270	      0.00000000	    -11.35197032	      3.24792738	      3.79181415	    -34.26488716	     -3.93897976	      0.77405868	      0.00000000	    -11.34838944	      4.58636994	     -8.28561194
      3.77000000	     -3.19627991	     -3.06567229	      4.32146417	      0.10453366	      0.67598457	     -0.09772870	     29.82175902	      8.10397682	     11.50168517	    -21.03571343	      4.34962895	    -12.56249218	      0.00000000	     -8.59407171	      1.59658823	      2.00506567	    -39.62130407	     -7.48109682	     -0.29908188	      0.00000000	    -11.47207112	      5.97239968	     -8.52536042
      3.78000000	     -3.07573499	     -4.15945105	      4.87828940	      0.11836793	      0.67579359	     -0.09736675	     29.89776289	      9.51936758	     11.01782937	    -23.34872920	      4.91122987	    -12.96449604	      0.00000000	     -5.65316828	     -0.15164715	      0.79582444	    -44.91714854	    -10.88810179	     -1.93625819	      0.00000000	    -11.61268936	      7.39809576	     -8.72692434
      3.79000000	     -2.89952536	     -5.30551633	      5.55084702	      0.13187664	      0.67593599	     -0.09718465	     29.57718144	     10.85236582	     10.40798271	    -24.94546138	      5.92674068	    -13.24935721	      0.00000000	     -2.61745815	     -1.89435329	      0.21310452	    -50.03221736	    -13.75681890	     -4.04382976	      0.00000000	    -11.78575769	      8.88071160	     -8.96038670
      3.80000000	     -2.85804496	     -6.42553492	      6.26351583	      0.14504926	      0.67631402	     -0.09714501	     29.08867601	     12.00096063	      9.52541076	    -25.85830734	      7.23480032	    -13.22421147	      0.00000000	      0.69196207	     -3.45233078	      0.18906295	    -54.88825531	    -15.80500551	     -6.15955328	      0.00000000	    -11.75170170	     10.30606426	     -9.19558612
      3.81000000	     -3.14146852	     -7.46954424	      6.85867412	      0.15798221	      0.67667288	     -0.09712695	     28.65277384	     12.94508628	      8.49758143	    -26.18488514	      8.87521661	    -12.65269494	      0.00000000	      4.40100802	     -4.68816210	      0.54504128	    -59.41757334	    -16.63226512	     -7.89711718	      0.00000000	    -11.23805999	     11.57076851	     -9.24935429
      3.82000000	     -2.88590915	     -8.41032750	      7.49128417	      0.17083368	      0.67825460	     -0.09723966	     27.19731843	     13.80043438	      7.55879262	    -25.69396769	     10.30674672	    -12.22266810	      0.00000000	      7.43081937	     -5.71352097	      1.11014455	    -63.30019795	    -16.45814365	     -9.49671618	      0.00000000	    -11.40425559	     12.73846873	     -9.16271647
      3.83000000	     -2.82815294	     -9.15972847	      8.04196972	      0.18364274	      0.68003228	     -0.09740072	     25.67753897	     14.40145628	      6.62639609	    -24.76915810	     11.83302356	    -11.29451184	      0.00000000	     10.59057255	     -6.33261848	      1.84028890	    -66.65787252	    -15.21777571	    -10.42432515	      0.00000000	    -11.26741915	     13.63557931	     -9.04986631
      3.84000000	     -2.73474671	     -9.64413725	      8.40163179	      0.19652234	      0.68228618	     -0.09747687	     23.84681015	     14.81005808	      5.97456412	    -23.50352886	     13.14779781	    -10.26978613	      0.00000000	     13.45174815	     -6.57002065	      2.42133407	    -69.29821805	    -13.12645470	    -11.02081639	      0.00000000	    -11.19228391	     14.17406680	     -8.67590638
